{"title":"Tropic Thunder Mockumentary Rain of Madness BRrip 720P x264 MP4 ","uid":9643549,"size":325046789,"categoryP":"video","categoryS":"hd___movies","magnet":"?xt=urn:btih:de35fa8fcb2483e7a1ab7f14c45088f611788b51&amp;dn=Tropic+Thunder+Mockumentary+Rain+of+Madness+BRrip+720P+x264+MP4+&amp;tr=udp%3A%2F%2Ftracker.openbittorrent.com%3A80&amp;tr=udp%3A%2F%2Fopen.demonii.com%3A1337&amp;tr=udp%3A%2F%2Ftracker.coppersurfer.tk%3A6969&amp;tr=udp%3A%2F%2Fexodus.desync.com%3A6969","seeders":4,"leechers":0,"uploader":"realOfek","files":3,"time":1392960416,"description":"Please leave feedback!\n\nDownload .txt first to check upload date AND signature are correct. Formatting may look weird in notepad, just copy/paste into different text editor like usual. Guide on PGP verification, useful for everyone too\n\n[url=&quot;http://www.imdb.com/title/tt1286750/&quot;]http://www.imdb.com/title/tt1286750/[/url]\n\nSource: Web-dl\n\nGeneral\nFormat : MPEG-4\nFormat profile : Base Media\nCodec ID : isom\nFile size : 310 MiB\nDuration : 30mn 0s\nOverall bit rate mode : Variable\nOverall bit rate : 1 444 Kbps\nEncoded date : UTC 2014-02-19 13:24:43\nTagged date : UTC 2014-02-19 13:24:43\n\nVideo\nID : 1\nFormat : AVC\nFormat/Info : Advanced Video Codec\nFormat profile : &lt;a class=&quot;__cf_email__&quot; href=&quot;/cdn-cgi/l/email-protection&quot; data-cfemail=&quot;367e5f515e767a051807&quot;&gt;[email&amp;#160;protected]&lt;/a&gt;&lt;script cf-hash='f9e31' type=&quot;text/javascript&quot;&gt;\n/* &lt;![CDATA[ */!function(){try{var t=&quot;currentScript&quot;in document?document.currentScript:function(){for(var t=document.getElementsByTagName(&quot;script&quot;),e=t.length;e--;)if(t[e].getAttribute(&quot;cf-hash&quot;))return t[e]}();if(t&amp;&amp;t.previousSibling){var e,r,n,i,c=t.previousSibling,a=c.getAttribute(&quot;data-cfemail&quot;);if(a){for(e=&quot;&quot;,r=parseInt(a.substr(0,2),16),n=2;a.length-n;n+=2)i=parseInt(a.substr(n,2),16)^r,e+=String.fromCharCode(i);e=document.createTextNode(e),c.parentNode.replaceChild(e,c)}}}catch(u){}}();/* ]]&gt; */&lt;/script&gt;\nFormat settings, CABAC : Yes\nFormat settings, ReFrames : 4 frames\nCodec ID : avc1\nCodec ID/Info : Advanced Video Coding\nDuration : 30mn 0s\nBit rate : 1 248 Kbps\nMaximum bit rate : 9 821 Kbps\nWidth : 1 280 pixels\nHeight : 720 pixels\nDisplay aspect ratio : 16:9\nFrame rate mode : Constant\nFrame rate : 23.976 fps\nColor space : YUV\nChroma subsampling : 4:2:0\nBit depth : 8 bits\nScan type : Progressive\nBits/(Pixel*Frame) : 0.056\nStream size : 268 MiB (86%)\nTitle : Video\nWriting library : x264 core 133 r2334 a3ac64b\nEncoding settings : cabac=1 / ref=3 / deblock=1:-1:-1 / analyse=0x3:0x113 / me=hex / subme=7 / psy=1 / psy_rd=1.00:0.15 / mixed_ref=1 / me_range=16 / chroma_me=1 / trellis=1 / 8x8dct=1 / cqm=0 / deadzone=21,11 / fast_pskip=1 / chroma_qp_offset=-3 / threads=12 / lookahead_threads=2 / sliced_threads=0 / nr=0 / decimate=1 / interlaced=0 / bluray_compat=0 / constrained_intra=0 / bframes=3 / b_pyramid=2 / b_adapt=1 / b_bias=0 / direct=1 / weightb=1 / open_gop=0 / weightp=2 / keyint=250 / keyint_min=23 / scenecut=40 / intra_refresh=0 / rc_lookahead=40 / rc=2pass / mbtree=1 / bitrate=1248 / ratetol=1.0 / qcomp=0.60 / qpmin=0 / qpmax=69 / qpstep=4 / cplxblur=20.0 / qblur=0.5 / ip_ratio=1.40 / aq=1:1.00\nEncoded date : UTC 2014-02-19 13:24:43\nTagged date : UTC 2014-02-19 13:24:48\n\nAudio\nID : 2\nFormat : AAC\nFormat/Info : Advanced Audio Codec\nFormat profile : LC\nCodec ID : 40\nDuration : 30mn 0s\nBit rate mode : Variable\nBit rate : 192 Kbps\nMaximum bit rate : 200 Kbps\nChannel(s) : 2 channels\nChannel positions : Front: L R\nSampling rate : 48.0 KHz\nCompression mode : Lossy\nStream size : 41.2 MiB (13%)\nLanguage : English\nEncoded date : UTC 2014-02-19 13:24:47\nTagged date : UTC 2014-02-19 13:24:48\n\n\n\n\n\n\nEnjoy!","torrent":{"xt":"urn:btih:de35fa8fcb2483e7a1ab7f14c45088f611788b51","amp;dn":"Tropic+Thunder+Mockumentary+Rain+of+Madness+BRrip+720P+x264+MP4+","amp;tr":["udp%3A%2F%2Ftracker.openbittorrent.com%3A80","udp%3A%2F%2Fopen.demonii.com%3A1337","udp%3A%2F%2Ftracker.coppersurfer.tk%3A6969","udp%3A%2F%2Fexodus.desync.com%3A6969"],"infoHash":"de35fa8fcb2483e7a1ab7f14c45088f611788b51","infoHashBuffer":{"type":"Buffer","data":[222,53,250,143,203,36,131,231,161,171,127,20,196,80,136,246,17,120,139,81]},"announce":[],"urlList":[]}}